<svg width="24" height="25" viewBox="0 0 24 25" fill="none" xmlns="http://www.w3.org/2000/svg">
<path d="M22.7795 8.74552L10.5687 20.8208C8.54541 22.8218 5.26476 22.8218 3.2415 20.8208C1.21824 18.8198 1.21824 15.5761 3.2415 13.5751L14.2318 2.70748C15.581 1.37376 17.7672 1.37376 19.1164 2.70748C20.4655 4.04115 20.4655 6.20426 19.1164 7.53793L8.12599 18.4056C7.45186 19.0729 6.35831 19.0729 5.68331 18.4056C5.00918 17.7392 5.00918 16.6577 5.68331 15.9904L15.4523 6.3303L14.231 5.1227L4.46286 14.7836C3.11373 16.1173 3.11373 18.2804 4.46286 19.6141C5.81198 20.9478 7.99822 20.9478 9.34735 19.6141L20.3377 8.74639C22.361 6.74544 22.361 3.50169 20.3377 1.50071C18.3144 -0.500236 15.0338 -0.500236 13.0106 1.50071L1.4095 12.9722L1.45154 13.0142C-0.655797 15.6935 -0.470538 19.5669 2.02018 22.0292C4.5109 24.4917 8.42619 24.6761 11.1364 22.591L11.1785 22.6331L24 9.95398L22.7795 8.74552Z" fill="#610B0B"/>
</svg>
