<svg width="23" height="13" viewBox="0 0 23 13" fill="none" xmlns="http://www.w3.org/2000/svg">
<path d="M2.09808e-05 11.694C-0.00094986 11.5231 0.0312729 11.3537 0.0948467 11.1955C0.158421 11.0373 0.252094 10.8934 0.370495 10.772L10.5904 0.384092C10.7091 0.262387 10.8504 0.165786 11.0061 0.0998635C11.1618 0.0339407 11.3288 0 11.4974 0C11.666 0 11.833 0.0339407 11.9887 0.0998635C12.1444 0.165786 12.2857 0.262387 12.4044 0.384092L22.6243 10.772C22.8649 11.0166 23 11.3482 23 11.694C23 12.0398 22.8649 12.3714 22.6243 12.6159C22.3837 12.8604 22.0575 12.9978 21.7173 12.9978C21.3771 12.9978 21.0508 12.8604 20.8103 12.6159L11.4974 3.1369L2.18452 12.6159C2.06576 12.7376 1.92447 12.8342 1.7688 12.9001C1.61313 12.9661 1.44615 13 1.27751 13C1.10886 13 0.941891 12.9661 0.786217 12.9001C0.630543 12.8342 0.489252 12.7376 0.370495 12.6159C0.252094 12.4946 0.158421 12.3507 0.0948467 12.1925C0.0312729 12.0343 -0.00094986 11.8649 2.09808e-05 11.694Z" fill="#610B0B"/>
</svg>
