<svg width="28" height="34" viewBox="0 0 28 34" fill="none" xmlns="http://www.w3.org/2000/svg">
<path d="M13.7581 16.9167C15.3454 16.9167 16.8971 16.4206 18.2169 15.4912C19.5367 14.5618 20.5654 13.2408 21.1728 11.6952C21.7802 10.1496 21.9392 8.44895 21.6295 6.8082C21.3198 5.16744 20.5555 3.66031 19.4331 2.47739C18.3107 1.29447 16.8806 0.488895 15.3238 0.162528C13.767 -0.163838 12.1533 0.00366485 10.6869 0.643856C9.22038 1.28405 7.96696 2.36817 7.0851 3.75914C6.20324 5.1501 5.73254 6.78544 5.73254 8.45834C5.73254 10.7016 6.57809 12.853 8.08318 14.4393C9.58827 16.0255 11.6296 16.9167 13.7581 16.9167ZM13.7581 2.41667C14.8919 2.41667 16.0002 2.77101 16.943 3.43487C17.8857 4.09874 18.6204 5.04232 19.0543 6.14629C19.4882 7.25026 19.6017 8.46504 19.3805 9.63701C19.1593 10.809 18.6134 11.8855 17.8117 12.7304C17.0099 13.5754 15.9885 14.1508 14.8765 14.3839C13.7645 14.617 12.6119 14.4974 11.5644 14.0401C10.5169 13.5828 9.62158 12.8085 8.99168 11.8149C8.36178 10.8214 8.02557 9.65327 8.02557 8.45834C8.02557 6.85599 8.62953 5.31927 9.70459 4.18623C10.7797 3.0532 12.2378 2.41667 13.7581 2.41667Z" fill="#610B0B"/>
<path d="M14.9046 19.3334H12.6116C9.26681 19.3334 6.059 20.7337 3.69386 23.2264C1.32872 25.7191 0 29.0999 0 32.625C0 32.9455 0.120793 33.2529 0.335806 33.4795C0.550818 33.7061 0.842437 33.8334 1.14651 33.8334H26.3698C26.6738 33.8334 26.9654 33.7061 27.1805 33.4795C27.3955 33.2529 27.5163 32.9455 27.5163 32.625C27.5163 29.0999 26.1875 25.7191 23.8224 23.2264C21.4573 20.7337 18.2495 19.3334 14.9046 19.3334ZM2.36181 31.4167C2.64373 28.7592 3.84484 26.3042 5.73563 24.521C7.62642 22.7378 10.0743 21.7513 12.6116 21.75H14.9046C17.4419 21.7513 19.8898 22.7378 21.7806 24.521C23.6714 26.3042 24.8725 28.7592 25.1545 31.4167H2.36181Z" fill="#610B0B"/>
</svg>
