<svg width="41" height="40" viewBox="0 0 41 40" fill="none" xmlns="http://www.w3.org/2000/svg">
<path d="M35.8079 26.6671H14.3355C13.9792 26.6676 13.6333 26.553 13.3547 26.342C13.076 26.1309 12.8811 25.8361 12.802 25.5059L9.18645 10.5326C9.13356 10.3139 9.13324 10.0867 9.18552 9.86781C9.2378 9.64895 9.34133 9.44412 9.4884 9.26855C9.63547 9.09299 9.8223 8.95121 10.035 8.85377C10.2477 8.75633 10.4807 8.70574 10.7168 8.70575H39.4266C39.6629 8.70529 39.8964 8.75555 40.1094 8.8528C40.3225 8.95004 40.5097 9.09176 40.6572 9.26738C40.8046 9.44301 40.9084 9.648 40.9608 9.86708C41.0133 10.0862 41.013 10.3137 40.9601 10.5326L37.3383 25.5059C37.2593 25.8356 37.0649 26.1301 36.7868 26.341C36.5088 26.552 36.1636 26.667 35.8079 26.6671ZM15.5853 23.682H34.558L37.4545 11.6938H12.6879L15.5853 23.682Z" fill="#610B0B"/>
<path d="M17.4078 40C16.2177 40 15.0545 39.6646 14.065 39.0361C13.0755 38.4076 12.3043 37.5144 11.8489 36.4693C11.3935 35.4242 11.2744 34.2742 11.5065 33.1647C11.7387 32.0553 12.3118 31.0362 13.1532 30.2363C13.9947 29.4364 15.0668 28.8917 16.2339 28.671C17.4011 28.4503 18.6109 28.5636 19.7103 28.9965C20.8097 29.4294 21.7494 30.1624 22.4106 31.103C23.0717 32.0435 23.4246 33.1493 23.4246 34.2805C23.4229 35.7969 22.7885 37.2508 21.6605 38.3231C20.5324 39.3953 19.003 39.9984 17.4078 40ZM17.4078 31.5472C16.8388 31.5472 16.2826 31.7076 15.8095 32.0081C15.3365 32.3086 14.9678 32.7357 14.7501 33.2354C14.5324 33.7351 14.4755 34.2849 14.5866 34.8154C14.6977 35.3458 14.9717 35.833 15.3741 36.2154C15.7765 36.5977 16.2892 36.8581 16.8472 36.9635C17.4053 37.0689 17.9837 37.0146 18.5093 36.8075C19.0349 36.6004 19.4841 36.2497 19.8 35.7999C20.116 35.3501 20.2845 34.8214 20.2843 34.2805C20.2834 33.5557 19.9801 32.8608 19.4408 32.3483C18.9015 31.8358 18.1703 31.5477 17.4078 31.5472Z" fill="#610B0B"/>
<path d="M32.7345 40C31.5445 40 30.3812 39.6646 29.3918 39.0361C28.4023 38.4076 27.6311 37.5144 27.1757 36.4693C26.7203 35.4242 26.6012 34.2742 26.8333 33.1647C27.0655 32.0553 27.6385 31.0362 28.48 30.2363C29.3215 29.4364 30.3936 28.8917 31.5607 28.671C32.7279 28.4503 33.9377 28.5636 35.0371 28.9965C36.1365 29.4294 37.0762 30.1624 37.7374 31.103C38.3985 32.0435 38.7514 33.1493 38.7514 34.2805C38.7497 35.7969 38.1153 37.2508 36.9872 38.3231C35.8592 39.3953 34.3298 39.9984 32.7345 40ZM32.7345 31.5472C32.1656 31.5472 31.6094 31.7076 31.1363 32.0081C30.6633 32.3086 30.2946 32.7357 30.0769 33.2354C29.8592 33.7351 29.8023 34.2849 29.9134 34.8154C30.0244 35.3458 30.2985 35.833 30.7009 36.2154C31.1033 36.5977 31.6159 36.8581 32.174 36.9635C32.7321 37.0689 33.3105 37.0146 33.8361 36.8075C34.3617 36.6004 34.8108 36.2497 35.1268 35.7999C35.4427 35.3501 35.6113 34.8214 35.6111 34.2805C35.6102 33.5557 35.3069 32.8608 34.7676 32.3483C34.2283 31.8358 33.4971 31.5477 32.7345 31.5472Z" fill="#610B0B"/>
<path d="M10.7168 11.6906C10.3872 11.6906 10.066 11.592 9.79867 11.4088C9.53133 11.2255 9.33142 10.967 9.22727 10.6697L6.53603 2.9851H1.57015C1.15372 2.9851 0.754349 2.82785 0.459887 2.54794C0.165426 2.26803 0 1.8884 0 1.49255C0 1.0967 0.165426 0.717064 0.459887 0.437157C0.754349 0.15725 1.15372 0 1.57015 0H7.67282C8.00241 2.89877e-05 8.32363 0.0986447 8.59097 0.281875C8.85831 0.465106 9.05822 0.723659 9.16237 1.0209L12.2116 9.72644C12.2902 9.95078 12.3116 10.1897 12.2741 10.4234C12.2365 10.6572 12.1411 10.8791 11.9956 11.0709C11.8502 11.2627 11.6588 11.4189 11.4374 11.5267C11.216 11.6344 10.9708 11.6906 10.7221 11.6906H10.7168Z" fill="#610B0B"/>
</svg>
