<svg width="26" height="23" viewBox="0 0 26 23" fill="none" xmlns="http://www.w3.org/2000/svg">
<path d="M12.9629 23C12.62 23.0009 12.2803 22.931 11.9633 22.7944C11.6464 22.6578 11.3585 22.4572 11.1161 22.2041L2.18562 12.8885C1.48015 12.1446 0.92364 11.2617 0.548522 10.2912C0.173403 9.32073 -0.012825 8.28209 0.000685849 7.2358C0.00748319 6.27696 0.19556 5.32894 0.554144 4.44604C0.912728 3.56314 1.43477 2.76271 2.09038 2.0906C2.74598 1.41848 3.52226 0.887891 4.37475 0.529215C5.22725 0.170539 6.1392 -0.00917367 7.05838 0.000369824C7.99401 -0.00946116 8.92201 0.176802 9.78734 0.548113C10.6527 0.919424 11.4377 1.46822 12.0959 2.16195L12.9629 3.06638L13.6739 2.32475C14.9015 1.01023 16.5443 0.20433 18.2979 0.0563308C20.0514 -0.0916684 21.797 0.428258 23.2113 1.51981C24.0164 2.16652 24.6801 2.98473 25.1583 3.91995C25.6365 4.85516 25.9182 5.88593 25.9847 6.9436C26.0511 8.00126 25.9008 9.06156 25.5437 10.0539C25.1866 11.0462 24.6309 11.9478 23.9136 12.6985L14.8097 22.2041C14.5674 22.4572 14.2794 22.6578 13.9625 22.7944C13.6456 22.931 13.3058 23.0009 12.9629 23ZM7.0237 1.80018C5.64556 1.79872 4.32093 2.3566 3.33011 3.3558C2.82497 3.86277 2.42327 4.47101 2.14912 5.14398C1.87497 5.81694 1.73403 6.54077 1.73476 7.27198C1.72716 8.0763 1.8727 8.87419 2.16292 9.6194C2.45315 10.3646 2.8823 11.0423 3.42549 11.6132L12.356 20.9289C12.4366 21.0136 12.5325 21.0809 12.6381 21.1268C12.7438 21.1727 12.8571 21.1964 12.9716 21.1964C13.086 21.1964 13.1994 21.1727 13.305 21.1268C13.4107 21.0809 13.5066 21.0136 13.5872 20.9289L22.6998 11.4143C23.2346 10.8445 23.6479 10.1631 23.9124 9.41493C24.1769 8.66672 24.2866 7.8686 24.2344 7.073C24.1881 6.26925 23.9759 5.48542 23.6122 4.77517C23.2486 4.06491 22.7421 3.445 22.1275 2.95785C21.049 2.12839 19.7182 1.7362 18.3831 1.85434C17.048 1.97248 15.7995 2.59289 14.8704 3.6L13.5785 4.98377C13.4979 5.06854 13.402 5.13583 13.2964 5.18174C13.1907 5.22766 13.0774 5.2513 12.9629 5.2513C12.8485 5.2513 12.7351 5.22766 12.6295 5.18174C12.5238 5.13583 12.4279 5.06854 12.3473 4.98377L10.8734 3.44624C9.85814 2.39645 8.48788 1.80522 7.05838 1.80018H7.0237Z" fill="#610B0B"/>
</svg>
