<svg width="40" height="35" viewBox="0 0 40 35" fill="none" xmlns="http://www.w3.org/2000/svg">
<path d="M19.9429 35C19.4154 35.0013 18.8927 34.895 18.4051 34.6871C17.9175 34.4793 17.4745 34.174 17.1017 33.7888L3.3625 19.6129C2.27715 18.4809 1.42098 17.1373 0.843879 15.6605C0.266774 14.1837 -0.0197308 12.6032 0.00105515 11.011C0.0115126 9.5519 0.300862 8.10926 0.85253 6.76571C1.4042 5.42217 2.20734 4.20412 3.21596 3.18134C4.22459 2.15856 5.41886 1.35114 6.73039 0.805327C8.04192 0.259516 9.44492 -0.0139599 10.859 0.000562776C12.2985 -0.0143974 13.7262 0.269047 15.0574 0.834085C16.3887 1.39912 17.5965 2.23425 18.609 3.28993L19.9429 4.66623L21.0367 3.53767C22.9254 1.5373 25.4527 0.310937 28.1506 0.0857208C30.8484 -0.139495 33.5339 0.651697 35.7097 2.31275C36.9483 3.29688 37.9694 4.54198 38.7051 5.96514C39.4408 7.38829 39.8742 8.95685 39.9764 10.5663C40.0787 12.1758 39.8474 13.7893 39.298 15.2994C38.7486 16.8094 37.8937 18.1814 36.7902 19.3239L22.7842 33.7888C22.4113 34.174 21.9684 34.4793 21.4808 34.6871C20.9932 34.895 20.4705 35.0013 19.9429 35ZM10.8057 2.73941C8.68547 2.73718 6.64759 3.58614 5.12325 5.10665C4.34612 5.87813 3.72811 6.8037 3.30634 7.82779C2.88457 8.85187 2.66773 9.95334 2.66887 11.0661C2.65718 12.29 2.88107 13.5042 3.32757 14.6382C3.77408 15.7722 4.4343 16.8035 5.26998 17.6723L19.0092 31.8482C19.1332 31.9772 19.2807 32.0796 19.4433 32.1495C19.6058 32.2194 19.7802 32.2554 19.9563 32.2554C20.1324 32.2554 20.3067 32.2194 20.4693 32.1495C20.6318 32.0796 20.7794 31.9772 20.9034 31.8482L34.9227 17.3695C35.7456 16.5025 36.3814 15.4656 36.7883 14.3271C37.1953 13.1885 37.3641 11.974 37.2837 10.7633C37.2125 9.54016 36.886 8.34738 36.3265 7.26656C35.7671 6.18573 34.9879 5.24238 34.0423 4.50108C32.3831 3.23886 30.3358 2.64204 28.2817 2.82182C26.2276 3.0016 24.307 3.94571 22.8775 5.47825L20.89 7.584C20.766 7.713 20.6185 7.81539 20.4559 7.88526C20.2934 7.95514 20.119 7.99111 19.9429 7.99111C19.7669 7.99111 19.5925 7.95514 19.43 7.88526C19.2674 7.81539 19.1199 7.713 18.9959 7.584L16.7282 5.24428C15.1664 3.64677 13.0583 2.74707 10.859 2.73941H10.8057Z" fill="#610B0B"/>
</svg>
