<svg width="26" height="28" viewBox="0 0 26 28" fill="none" xmlns="http://www.w3.org/2000/svg">
<path d="M25.8567 23.485L22.9997 18.723V12C22.9997 6.823 19.0457 2.554 13.9997 2.051V1C13.9997 0.448 13.5517 0 12.9997 0C12.4477 0 11.9997 0.448 11.9997 1V3C11.9997 3.552 12.4477 4 12.9997 4C17.4107 4 20.9997 7.589 20.9997 12V19C20.9997 19.182 21.0487 19.359 21.1427 19.515L23.2327 23H2.7657L4.8567 19.515C4.9507 19.359 4.9997 19.182 4.9997 19V12C4.9997 8.921 6.7997 6.08 9.5847 4.762C10.0837 4.526 10.2967 3.93 10.0607 3.43C9.8247 2.931 9.2287 2.718 8.7287 2.954C5.2487 4.601 2.9997 8.151 2.9997 12V18.723L0.1427 23.486C-0.0433005 23.795 -0.0473002 24.179 0.1297 24.494C0.3067 24.807 0.6397 25 0.9997 25H9.1417C9.5887 26.721 11.1417 28 12.9997 28C14.8587 28 16.4107 26.721 16.8577 25H24.9997C25.3597 25 25.6917 24.807 25.8697 24.493C26.0477 24.179 26.0427 23.794 25.8567 23.485ZM12.9997 26C12.2627 26 11.6247 25.595 11.2777 25H14.7207C14.3747 25.595 13.7367 26 12.9997 26Z" fill="#610B0B"/>
</svg>
