<svg width="40" height="40" viewBox="0 0 40 40" fill="none" xmlns="http://www.w3.org/2000/svg">
<path d="M20 39.9999C19.7954 39.9995 19.5938 39.9515 19.4109 39.8596L0.735756 30.5231C0.515729 30.4132 0.330663 30.244 0.201381 30.0345C0.0720988 29.825 0.00373023 29.5835 0.0039679 29.3372V10.6614C0.00422144 10.4155 0.072821 10.1746 0.202076 9.96559C0.33133 9.75658 0.51613 9.58779 0.735756 9.47813L19.4109 0.138933C19.5939 0.0475592 19.7955 0 20 0C20.2045 0 20.4061 0.0475592 20.5891 0.138933L39.2643 9.47813C39.4839 9.58779 39.6687 9.75658 39.7979 9.96559C39.9272 10.1746 39.9958 10.4155 39.996 10.6614V29.3372C39.9963 29.5835 39.9279 29.825 39.7986 30.0345C39.6693 30.244 39.4843 30.4132 39.2643 30.5231L20.5891 39.8596C20.4062 39.9515 20.2046 39.9995 20 39.9999ZM2.6458 28.5192L20 37.1966L37.3542 28.5192V11.4926L20 2.80198L2.6458 11.4926V28.5192Z" fill="#610B0B"/>
<path d="M20 21.2872C19.7956 21.2876 19.594 21.2405 19.4109 21.1496L0.738399 11.8474C0.423103 11.6912 0.182651 11.4159 0.0699381 11.0821C-0.0427744 10.7482 -0.0185141 10.3832 0.137382 10.0672C0.293279 9.75129 0.56804 9.51035 0.901223 9.39741C1.23441 9.28447 1.59872 9.30878 1.91401 9.46499L20 18.4654L38.086 9.46499C38.2421 9.38764 38.4119 9.34186 38.5857 9.33027C38.7594 9.31867 38.9338 9.34149 39.0988 9.39741C39.2638 9.45333 39.4161 9.54127 39.5472 9.65619C39.6782 9.77112 39.7854 9.91079 39.8626 10.0672C39.9398 10.2237 39.9855 10.3938 39.9971 10.5679C40.0086 10.742 39.9859 10.9167 39.9301 11.0821C39.8743 11.2474 39.7865 11.4 39.6718 11.5314C39.5571 11.6627 39.4177 11.7701 39.2616 11.8474L20.5891 21.1496C20.406 21.2405 20.2044 21.2876 20 21.2872Z" fill="#610B0B"/>
<path d="M29.3362 16.636C29.1328 16.636 28.9321 16.5889 28.7498 16.4984L10.0746 7.19623C9.75935 7.04001 9.51889 6.7647 9.40618 6.43084C9.29347 6.09699 9.31773 5.73194 9.47362 5.41601C9.62952 5.10007 9.90428 4.85914 10.2375 4.7462C10.5707 4.63326 10.935 4.65757 11.2503 4.81378L29.9254 14.1397C30.1925 14.2724 30.4071 14.4918 30.534 14.7621C30.661 15.0325 30.6929 15.3379 30.6246 15.6288C30.5564 15.9196 30.3919 16.1787 30.158 16.364C29.924 16.5493 29.6344 16.6498 29.3362 16.6493V16.636Z" fill="#610B0B"/>
<path d="M20 40C19.6497 40 19.3137 39.8605 19.066 39.6123C18.8182 39.3641 18.6791 39.0274 18.6791 38.6764V19.9636C18.6791 19.6126 18.8182 19.2759 19.066 19.0277C19.3137 18.7795 19.6497 18.64 20 18.64C20.3503 18.64 20.6863 18.7795 20.934 19.0277C21.1818 19.2759 21.3209 19.6126 21.3209 19.9636V38.6764C21.3209 39.0274 21.1818 39.3641 20.934 39.6123C20.6863 39.8605 20.3503 40 20 40Z" fill="#610B0B"/>
</svg>
