<svg width="31" height="31" viewBox="0 0 31 31" fill="none" xmlns="http://www.w3.org/2000/svg">
<path d="M22.7256 20.7545C24.4656 18.6211 25.5163 15.5359 25.5163 12.5727C25.5163 5.72044 19.8379 0.299988 12.9582 0.299988C6.0777 0.299988 0.400024 5.72044 0.400024 12.5727C0.400024 19.425 6.0777 24.8454 12.9582 24.8454C15.8835 24.8454 18.5068 23.7995 20.6326 22.1182L28.307 30.3L30.4 28.2545L22.7256 20.7545ZM12.9582 22.1182C7.61537 22.1182 3.19072 17.8936 3.19072 12.5727C3.19072 7.25181 7.61537 3.02726 12.9582 3.02726C18.301 3.02726 22.7256 7.25181 22.7256 12.5727C22.7256 17.8936 18.301 22.1182 12.9582 22.1182Z" fill="#D3AEAE"/>
</svg>
