<svg width="25" height="25" viewBox="0 0 25 25" fill="none" xmlns="http://www.w3.org/2000/svg">
<path d="M19.8835 25H5.11592C4.25151 24.9984 3.42312 24.7294 2.81189 24.252C2.20067 23.7745 1.85635 23.1274 1.85425 22.4522V4.48459C1.85425 4.23678 1.98028 3.99911 2.20461 3.82388C2.42894 3.64865 2.7332 3.55021 3.05046 3.55021H21.9506C22.2678 3.55021 22.5721 3.64865 22.7964 3.82388C23.0208 3.99911 23.1468 4.23678 23.1468 4.48459V22.4522C23.1447 23.1277 22.8002 23.7749 22.1886 24.2524C21.577 24.7299 20.7482 24.9987 19.8835 25ZM4.24667 5.41898V22.4522C4.24688 22.6323 4.33853 22.8049 4.5015 22.9322C4.66447 23.0595 4.88544 23.1311 5.11592 23.1312H19.8835C20.1141 23.1312 20.3353 23.0597 20.4985 22.9324C20.6616 22.8051 20.7534 22.6324 20.7536 22.4522V5.41898H4.24667Z" fill="#610B0B"/>
<path d="M17.5239 5.41882H7.47575C7.1585 5.41882 6.85424 5.32038 6.6299 5.14515C6.40557 4.96992 6.27954 4.73225 6.27954 4.48444V2.78634C6.28081 2.04755 6.65714 1.33932 7.326 0.816973C7.99486 0.294629 8.90164 0.000824063 9.84744 0H15.1522C16.098 0.000824063 17.0048 0.294629 17.6737 0.816973C18.3425 1.33932 18.7189 2.04755 18.7201 2.78634V4.48444C18.7201 4.73225 18.5941 4.96992 18.3698 5.14515C18.1454 5.32038 17.8412 5.41882 17.5239 5.41882ZM8.67196 3.55005H16.3277V2.78634C16.3273 2.54298 16.2033 2.30969 15.9829 2.13767C15.7625 1.96564 15.4638 1.86894 15.1522 1.86877H9.84744C9.53602 1.8691 9.23749 1.96588 9.01728 2.13789C8.79708 2.30989 8.67318 2.54309 8.67276 2.78634L8.67196 3.55005Z" fill="#610B0B"/>
<path d="M12.4997 21.423C12.1824 21.423 11.8782 21.3245 11.6538 21.1493C11.4295 20.9741 11.3035 20.7364 11.3035 20.4886V8.06186C11.3035 7.81404 11.4295 7.57638 11.6538 7.40114C11.8782 7.22591 12.1824 7.12747 12.4997 7.12747C12.8169 7.12747 13.1212 7.22591 13.3455 7.40114C13.5699 7.57638 13.6959 7.81404 13.6959 8.06186V20.4886C13.6959 20.7364 13.5699 20.9741 13.3455 21.1493C13.1212 21.3245 12.8169 21.423 12.4997 21.423Z" fill="#610B0B"/>
<path d="M8.18059 21.423C7.86333 21.423 7.55907 21.3245 7.33474 21.1493C7.1104 20.9741 6.98438 20.7364 6.98438 20.4886V8.06186C6.98438 7.81404 7.1104 7.57638 7.33474 7.40114C7.55907 7.22591 7.86333 7.12747 8.18059 7.12747C8.49784 7.12747 8.8021 7.22591 9.02644 7.40114C9.25077 7.57638 9.3768 7.81404 9.3768 8.06186V20.4886C9.3768 20.7364 9.25077 20.9741 9.02644 21.1493C8.8021 21.3245 8.49784 21.423 8.18059 21.423Z" fill="#610B0B"/>
<path d="M16.8193 21.423C16.502 21.423 16.1977 21.3245 15.9734 21.1493C15.7491 20.9741 15.623 20.7364 15.623 20.4886V8.06186C15.623 7.81404 15.7491 7.57638 15.9734 7.40114C16.1977 7.22591 16.502 7.12747 16.8193 7.12747C17.1365 7.12747 17.4408 7.22591 17.6651 7.40114C17.8894 7.57638 18.0155 7.81404 18.0155 8.06186V20.4886C18.0155 20.7364 17.8894 20.9741 17.6651 21.1493C17.4408 21.3245 17.1365 21.423 16.8193 21.423Z" fill="#610B0B"/>
<path d="M23.8038 5.41898H1.19621C0.878956 5.41898 0.574695 5.32054 0.350362 5.1453C0.126029 4.97007 0 4.73241 0 4.48459C0 4.23678 0.126029 3.99911 0.350362 3.82388C0.574695 3.64865 0.878956 3.55021 1.19621 3.55021H23.8038C24.121 3.55021 24.4253 3.64865 24.6496 3.82388C24.874 3.99911 25 4.23678 25 4.48459C25 4.73241 24.874 4.97007 24.6496 5.1453C24.4253 5.32054 24.121 5.41898 23.8038 5.41898Z" fill="#610B0B"/>
</svg>
