<svg width="1217" height="393" viewBox="0 0 1217 393" fill="none" xmlns="http://www.w3.org/2000/svg">
<path d="M744.282 5.06304C600.965 -17.9555 217.382 55.704 40.1242 254.891C-9.58453 310.75 -2.12638 340.52 11.1285 352.797C45.9222 385.023 93.9684 389.32 110.539 391.468C140.722 395.382 57.2119 377.766 110.539 336.224C142.845 311.057 378.948 221.131 516.466 214.379C653.984 207.627 456.817 370.598 297.763 364.46C151.04 358.797 460.133 396.993 744.282 372.747C1028.43 348.5 1054.11 188.598 1175.06 139.185C1339.61 71.9626 954.698 168.955 909.966 221.131C858.598 281.047 800.614 185.222 850.319 139.185C900.025 93.1475 887.599 28.0816 744.282 5.06304Z" fill="#F8F1E0" stroke="#F8F1E0"/>
</svg>
