<svg width="221" height="162" viewBox="0 0 221 162" fill="none" xmlns="http://www.w3.org/2000/svg">
<path d="M41.8983 18.6484C1.08958 37.7035 -24.8354 91.9365 41.8983 162C25.8914 143.238 30.3755 119.786 70.7042 99.5585C111.033 79.3308 194.09 88.7117 211.853 71.1226C229.617 53.5334 218.575 26.2702 176.326 10.4399C134.078 -5.39032 82.707 -0.406759 41.8983 18.6484Z" fill="white" stroke="white"/>
<path d="M34.9141 61.4141C34.9141 62.3828 34.7266 63.2969 34.3516 64.1562C33.9922 65.0156 33.4922 65.7656 32.8516 66.4062C32.2109 67.0469 31.4609 67.5547 30.6016 67.9297C29.7422 68.2891 28.8281 68.4688 27.8594 68.4688H25.9375C24.9688 68.4688 24.0547 68.2891 23.1953 67.9297C22.3359 67.5547 21.5859 67.0469 20.9453 66.4062C20.3047 65.7656 19.7969 65.0156 19.4219 64.1562C19.0625 63.2969 18.8828 62.3828 18.8828 61.4141V50.5859C18.8828 49.6172 19.0625 48.7031 19.4219 47.8438C19.7969 46.9844 20.3047 46.2344 20.9453 45.5938C21.5859 44.9531 22.3359 44.4531 23.1953 44.0938C24.0547 43.7188 24.9688 43.5312 25.9375 43.5312H27.8594C28.8281 43.5312 29.7422 43.7188 30.6016 44.0938C31.4609 44.4531 32.2109 44.9531 32.8516 45.5938C33.4922 46.2344 33.9922 46.9844 34.3516 47.8438C34.7266 48.7031 34.9141 49.6172 34.9141 50.5859V51.5469L32.0312 52.0156V50.4219C32.0312 49.8438 31.9219 49.3047 31.7031 48.8047C31.4844 48.2891 31.1875 47.8438 30.8125 47.4688C30.4375 47.0938 29.9922 46.7969 29.4766 46.5781C28.9766 46.3594 28.4375 46.25 27.8594 46.25H25.9375C25.3594 46.25 24.8125 46.3594 24.2969 46.5781C23.7969 46.7969 23.3594 47.0938 22.9844 47.4688C22.6094 47.8438 22.3125 48.2891 22.0938 48.8047C21.875 49.3047 21.7656 49.8438 21.7656 50.4219V61.5781C21.7656 62.1562 21.875 62.7031 22.0938 63.2188C22.3125 63.7188 22.6094 64.1562 22.9844 64.5312C23.3594 64.9062 23.7969 65.2031 24.2969 65.4219C24.8125 65.6406 25.3594 65.75 25.9375 65.75H27.8594C28.4375 65.75 28.9766 65.6406 29.4766 65.4219C29.9922 65.2031 30.4375 64.9062 30.8125 64.5312C31.1875 64.1562 31.4844 63.7188 31.7031 63.2188C31.9219 62.7031 32.0312 62.1562 32.0312 61.5781V59.9844L34.9141 60.4531V61.4141ZM55.75 68L54.1562 65.5625C53.5 66.4531 52.6797 67.1641 51.6953 67.6953C50.7109 68.2109 49.6328 68.4688 48.4609 68.4688H47.7344C46.7656 68.4688 45.8516 68.2891 44.9922 67.9297C44.1328 67.5547 43.3828 67.0469 42.7422 66.4062C42.1016 65.7656 41.5938 65.0156 41.2188 64.1562C40.8594 63.2969 40.6797 62.3828 40.6797 61.4141V44H43.5625V61.5781C43.5625 62.1562 43.6719 62.7031 43.8906 63.2188C44.1094 63.7188 44.4062 64.1562 44.7812 64.5312C45.1562 64.9062 45.5938 65.2031 46.0938 65.4219C46.6094 65.6406 47.1562 65.75 47.7344 65.75H49.6562C50.2344 65.75 50.7734 65.6406 51.2734 65.4219C51.7891 65.2031 52.2344 64.9062 52.6094 64.5312C52.9844 64.1562 53.2812 63.7188 53.5 63.2188C53.7188 62.7031 53.8281 62.1562 53.8281 61.5781V44H56.7109V68H55.75ZM71.2188 68C70.3438 68 69.5156 67.8359 68.7344 67.5078C67.9688 67.1797 67.2969 66.7266 66.7188 66.1484C66.1562 65.5703 65.7031 64.8984 65.3594 64.1328C65.0312 63.3672 64.8672 62.5469 64.8672 61.6719V46.7422H60.5547V44H64.8672V38.2344L67.75 37.7656V44H73.8438V46.7422H67.75V61.8125C67.75 62.2969 67.8359 62.75 68.0078 63.1719C68.1953 63.5781 68.4453 63.9375 68.7578 64.25C69.0703 64.5625 69.4375 64.8125 69.8594 65C70.2812 65.1719 70.7344 65.2578 71.2188 65.2578H73.8438V68H71.2188ZM95.1953 61.4141C95.1953 62.3828 95.0078 63.2969 94.6328 64.1562C94.2734 65.0156 93.7734 65.7656 93.1328 66.4062C92.4922 67.0469 91.7422 67.5547 90.8828 67.9297C90.0234 68.2891 89.1094 68.4688 88.1406 68.4688H86.2188C85.25 68.4688 84.3359 68.2891 83.4766 67.9297C82.6172 67.5547 81.8672 67.0469 81.2266 66.4062C80.5859 65.7656 80.0781 65.0156 79.7031 64.1562C79.3438 63.2969 79.1641 62.3828 79.1641 61.4141V50.5859C79.1641 49.6172 79.3438 48.7031 79.7031 47.8438C80.0781 46.9844 80.5859 46.2344 81.2266 45.5938C81.8672 44.9531 82.6172 44.4531 83.4766 44.0938C84.3359 43.7188 85.25 43.5312 86.2188 43.5312H88.1406C89.1094 43.5312 90.0234 43.7188 90.8828 44.0938C91.7422 44.4531 92.4922 44.9531 93.1328 45.5938C93.7734 46.2344 94.2734 46.9844 94.6328 47.8438C95.0078 48.7031 95.1953 49.6172 95.1953 50.5859V56.2344H82.0469V61.5781C82.0469 62.1562 82.1562 62.7031 82.375 63.2188C82.5938 63.7188 82.8906 64.1562 83.2656 64.5312C83.6406 64.9062 84.0781 65.2031 84.5781 65.4219C85.0938 65.6406 85.6406 65.75 86.2188 65.75H88.1406C88.7188 65.75 89.2578 65.6406 89.7578 65.4219C90.2734 65.2031 90.7188 64.9062 91.0938 64.5312C91.4688 64.1562 91.7656 63.7188 91.9844 63.2188C92.2031 62.7031 92.3125 62.1562 92.3125 61.5781V59.9844L95.1953 60.4531V61.4141ZM92.3125 50.4219C92.3125 49.8438 92.2031 49.3047 91.9844 48.8047C91.7656 48.2891 91.4688 47.8438 91.0938 47.4688C90.7188 47.0938 90.2734 46.7969 89.7578 46.5781C89.2578 46.3594 88.7188 46.25 88.1406 46.25H86.2188C85.6406 46.25 85.0938 46.3594 84.5781 46.5781C84.0781 46.7969 83.6406 47.0938 83.2656 47.4688C82.8906 47.8438 82.5938 48.2891 82.375 48.8047C82.1562 49.3047 82.0469 49.8438 82.0469 50.4219V53.9844H92.3125V50.4219ZM108.016 46.7422C107.438 46.7422 106.891 46.8516 106.375 47.0703C105.875 47.2891 105.438 47.5859 105.062 47.9609C104.688 48.3359 104.391 48.7812 104.172 49.2969C103.953 49.7969 103.844 50.3359 103.844 50.9141V68H100.961V44H101.922L103.492 46.4375C104.148 45.5469 104.969 44.8438 105.953 44.3281C106.953 43.7969 108.039 43.5312 109.211 43.5312H110.898V46.7422H108.016ZM129.812 68L128.219 65.6094C127.562 66.4688 126.742 67.1641 125.758 67.6953C124.773 68.2109 123.695 68.4688 122.523 68.4688H121.797C120.828 68.4688 119.914 68.2891 119.055 67.9297C118.195 67.5547 117.445 67.0469 116.805 66.4062C116.164 65.7656 115.656 65.0156 115.281 64.1562C114.922 63.2969 114.742 62.3828 114.742 61.4141V61.1797C114.742 60.2109 114.922 59.2969 115.281 58.4375C115.656 57.5781 116.164 56.8281 116.805 56.1875C117.445 55.5469 118.195 55.0469 119.055 54.6875C119.914 54.3125 120.828 54.125 121.797 54.125H127.891V50.4219C127.891 49.8438 127.781 49.3047 127.562 48.8047C127.344 48.2891 127.047 47.8438 126.672 47.4688C126.297 47.0938 125.852 46.7969 125.336 46.5781C124.836 46.3594 124.297 46.25 123.719 46.25H122.031C121.453 46.25 120.906 46.3594 120.391 46.5781C119.891 46.7969 119.453 47.0938 119.078 47.4688C118.703 47.8438 118.406 48.2891 118.188 48.8047C117.969 49.3047 117.859 49.8438 117.859 50.4219V51.2891L114.977 50.8203V50.5859C114.977 49.6172 115.156 48.7031 115.516 47.8438C115.891 46.9844 116.398 46.2344 117.039 45.5938C117.68 44.9531 118.43 44.4531 119.289 44.0938C120.148 43.7188 121.062 43.5312 122.031 43.5312H123.719C124.688 43.5312 125.602 43.7188 126.461 44.0938C127.32 44.4531 128.07 44.9531 128.711 45.5938C129.352 46.2344 129.852 46.9844 130.211 47.8438C130.586 48.7031 130.773 49.6172 130.773 50.5859V68H129.812ZM127.891 56.375H121.797C121.219 56.375 120.672 56.4844 120.156 56.7031C119.656 56.9219 119.219 57.2266 118.844 57.6172C118.469 57.9922 118.172 58.4375 117.953 58.9531C117.734 59.4531 117.625 59.9922 117.625 60.5703V61.5781C117.625 62.1562 117.734 62.7031 117.953 63.2188C118.172 63.7188 118.469 64.1562 118.844 64.5312C119.219 64.9062 119.656 65.2031 120.156 65.4219C120.672 65.6406 121.219 65.75 121.797 65.75H123.719C124.297 65.75 124.836 65.6406 125.336 65.4219C125.852 65.2031 126.297 64.9062 126.672 64.5312C127.047 64.1562 127.344 63.7188 127.562 63.2188C127.781 62.7031 127.891 62.1562 127.891 61.5781V56.375ZM152.57 61.4141C152.57 62.3828 152.383 63.2969 152.008 64.1562C151.648 65.0156 151.148 65.7656 150.508 66.4062C149.867 67.0469 149.117 67.5547 148.258 67.9297C147.398 68.2891 146.484 68.4688 145.516 68.4688H143.594C142.625 68.4688 141.711 68.2891 140.852 67.9297C139.992 67.5547 139.242 67.0469 138.602 66.4062C137.961 65.7656 137.453 65.0156 137.078 64.1562C136.719 63.2969 136.539 62.3828 136.539 61.4141V34.3906H139.422V46.0156C140.078 45.2344 140.867 44.625 141.789 44.1875C142.711 43.75 143.711 43.5312 144.789 43.5312H145.516C146.484 43.5312 147.398 43.7188 148.258 44.0938C149.117 44.4531 149.867 44.9531 150.508 45.5938C151.148 46.2344 151.648 46.9844 152.008 47.8438C152.383 48.7031 152.57 49.6172 152.57 50.5859V61.4141ZM149.688 50.4219C149.688 49.8438 149.578 49.3047 149.359 48.8047C149.141 48.2891 148.844 47.8438 148.469 47.4688C148.094 47.0938 147.648 46.7969 147.133 46.5781C146.633 46.3594 146.094 46.25 145.516 46.25H143.594C143.016 46.25 142.469 46.3594 141.953 46.5781C141.453 46.7969 141.016 47.0938 140.641 47.4688C140.266 47.8438 139.969 48.2891 139.75 48.8047C139.531 49.3047 139.422 49.8438 139.422 50.4219V61.5781C139.422 62.1562 139.531 62.7031 139.75 63.2188C139.969 63.7188 140.266 64.1562 140.641 64.5312C141.016 64.9062 141.453 65.2031 141.953 65.4219C142.469 65.6406 143.016 65.75 143.594 65.75H145.516C146.094 65.75 146.633 65.6406 147.133 65.4219C147.648 65.2031 148.094 64.9062 148.469 64.5312C148.844 64.1562 149.141 63.7188 149.359 63.2188C149.578 62.7031 149.688 62.1562 149.688 61.5781V50.4219ZM174.367 61.4141C174.367 62.3828 174.18 63.2969 173.805 64.1562C173.445 65.0156 172.945 65.7656 172.305 66.4062C171.664 67.0469 170.914 67.5547 170.055 67.9297C169.195 68.2891 168.281 68.4688 167.312 68.4688H165.391C164.422 68.4688 163.508 68.2891 162.648 67.9297C161.789 67.5547 161.039 67.0469 160.398 66.4062C159.758 65.7656 159.25 65.0156 158.875 64.1562C158.516 63.2969 158.336 62.3828 158.336 61.4141V34.3906H161.219V46.0156C161.875 45.2344 162.664 44.625 163.586 44.1875C164.508 43.75 165.508 43.5312 166.586 43.5312H167.312C168.281 43.5312 169.195 43.7188 170.055 44.0938C170.914 44.4531 171.664 44.9531 172.305 45.5938C172.945 46.2344 173.445 46.9844 173.805 47.8438C174.18 48.7031 174.367 49.6172 174.367 50.5859V61.4141ZM171.484 50.4219C171.484 49.8438 171.375 49.3047 171.156 48.8047C170.938 48.2891 170.641 47.8438 170.266 47.4688C169.891 47.0938 169.445 46.7969 168.93 46.5781C168.43 46.3594 167.891 46.25 167.312 46.25H165.391C164.812 46.25 164.266 46.3594 163.75 46.5781C163.25 46.7969 162.812 47.0938 162.438 47.4688C162.062 47.8438 161.766 48.2891 161.547 48.8047C161.328 49.3047 161.219 49.8438 161.219 50.4219V61.5781C161.219 62.1562 161.328 62.7031 161.547 63.2188C161.766 63.7188 162.062 64.1562 162.438 64.5312C162.812 64.9062 163.25 65.2031 163.75 65.4219C164.266 65.6406 164.812 65.75 165.391 65.75H167.312C167.891 65.75 168.43 65.6406 168.93 65.4219C169.445 65.2031 169.891 64.9062 170.266 64.5312C170.641 64.1562 170.938 63.7188 171.156 63.2188C171.375 62.7031 171.484 62.1562 171.484 61.5781V50.4219ZM180.859 38.2344V34.3906H184.211V38.2344H180.859ZM181.094 68V44H183.977V68H181.094ZM199.469 68C198.594 68 197.766 67.8359 196.984 67.5078C196.219 67.1797 195.547 66.7266 194.969 66.1484C194.406 65.5703 193.953 64.8984 193.609 64.1328C193.281 63.3672 193.117 62.5469 193.117 61.6719V46.7422H188.805V44H193.117V38.2344L196 37.7656V44H202.094V46.7422H196V61.8125C196 62.2969 196.086 62.75 196.258 63.1719C196.445 63.5781 196.695 63.9375 197.008 64.25C197.32 64.5625 197.688 64.8125 198.109 65C198.531 65.1719 198.984 65.2578 199.469 65.2578H202.094V68H199.469Z" fill="#610B0B"/>
</svg>
